<svg xmlns="http://www.w3.org/2000/svg" width="387.708" height="102.969" viewBox="0 0 102.581 27.244"><path fill="#c20030" d="M13.62 27.244c7.523 0 13.622-6.098 13.622-13.623C27.242 6.099 21.143 0 13.62 0 6.1 0 0 6.1 0 13.62c0 7.526 6.1 13.624 13.62 13.624"/><path fill="#fff" d="M13.078 7.644v11.942h3.8V18.52h-2.71V7.644zm-3.807 3.259a1.633 1.633 0 1 0 0-3.266 1.633 1.633 0 0 0 0 3.266"/><path fill="#fff" d="M14.168 2.224a14.64 14.64 0 0 0-.55-.01c-6.283 0-11.4 5.12-11.4 11.405 0 3.044 1.187 5.91 3.34 8.063a11.326 11.326 0 0 0 8.06 3.34 11.33 11.33 0 0 0 8.068-3.34 11.349 11.349 0 0 0 3.338-8.063v-.52H16.88v1.063h7.057v.157c-.365 5.375-4.85 9.638-10.32 9.638a10.27 10.27 0 0 1-7.305-3.03 10.257 10.257 0 0 1-3.03-7.308 10.28 10.28 0 0 1 3.03-7.312 10.273 10.273 0 0 1 7.305-3.027c.125 0 .419.003.55.01zm0 0"/><path fill="#686868" d="M37.543 4.64h-4.1v17.743h12.589v-3.456h-8.489zm17.508 10.98h3.34v3.103c-.617.236-1.818.469-2.96.469-3.688 0-4.918-1.874-4.918-5.682 0-3.628 1.17-5.767 4.86-5.767 2.051 0 3.221.644 4.187 1.874l2.55-2.341c-1.553-2.225-4.276-2.9-6.824-2.9-5.74 0-8.757 3.132-8.757 9.105 0 5.945 2.723 9.166 8.728 9.166 2.752 0 5.446-.703 6.91-1.728V12.31h-7.116zM93.053 4.476h-2.09c-1.247 0-2.704-.212-3.528-.518l-.42 2.435c.824.286 2.147.4 3.008.4h3.03zm2.781 3.18H84.618V9.92h11.216zm-9.894 4.162c0 2.012 1.266 3.373 4.39 3.373 3.145 0 4.409-1.38 4.409-3.373 0-1.84-1.686-3.298-4.409-3.298-2.683 0-4.39 1.458-4.39 3.298m13.727 4.255H87.78v2.358h8.837v3.99h2.704c.25-1 .345-2.34.345-3.222zm2.914-7.63h-2.914V4.437h-3.049v10.754h3.049v-4.255h2.914zM91.96 11.74c0 .768-.497 1.38-1.629 1.38-1.189 0-1.65-.612-1.65-1.38 0-.747.461-1.362 1.65-1.362 1.132 0 1.63.615 1.63 1.362m-24.94.537c0 2.148 1.321 3.49 4.542 3.49 3.24 0 4.562-1.342 4.562-3.49 0-2.012-1.744-3.43-4.562-3.43-2.8 0-4.542 1.418-4.542 3.43m16.908-2.414h-2.895V4.437h-3.068v17.886h2.685c.25-1.054.383-2.625.383-4.045v-5.847h2.895zM74.227 4.59h-2.07c-1.247 0-2.762-.21-3.49-.5l-.44 2.417c.825.25 2.203.402 3.182.402h2.818zm-.997 7.592c0 .883-.48 1.514-1.63 1.514-1.17 0-1.667-.63-1.667-1.514 0-.901.497-1.497 1.667-1.497 1.15 0 1.63.596 1.63 1.497m3.973-4.333H65.741v2.32h11.462zm-7.079 9.26h-4.332v2.34h6.92c1.917 0 4.16-.442 5.369-1.151V15.92c-1.228.69-3.125 1.188-4.947 1.188v-2.127h-3.01zm0 0"/></svg>